#!OML:ASF I:\Random Stuff\random\construction\7_22_03\Session 2\subj1.ASF
:FULLY-SPECIFIED
:DEGREES
474
root -6.69492 17.8936 3.73319 38.3868 58.5164 20.3147
lowerback 21.8151 -1.05503 12.7477
upperback 8.03124 2.21162 7.5696
thorax -3.16502 1.3713 0.476356
lowerneck -24.8508 -7.19839 -5.68767
upperneck 22.4838 -9.73932 6.83159
head 12.166 -3.88244 1.77599
rclavicle 8.90555e-014 9.22361e-014
rhumerus 22.5365 10.981 -66.0076
rradius 32.4131
rwrist 2.28386
rhand -15.5953 36.0936
rfingers 7.12502
rthumb 10.5905 6.38047
lclavicle 8.90555e-014 9.22361e-014
lhumerus -24.6616 -33.4933 96.8443
lradius 66.0671
lwrist 43.7574
lhand -16.4477 59.1489
lfingers 7.12502
lthumb -170.232 -91.0977
rfemur -38.7994 -3.99304 15.0964
rtibia 30.6251
rfoot -11.0619 -11.7758
rtoes -0.442168
lfemur -28.9335 -4.11213 -20.8678
ltibia 17.6123
lfoot -0.8593 3.5398
ltoes -32.874
475
root -6.69941 17.8914 3.72307 38.2937 58.5508 20.1575
lowerback 21.7881 -1.02295 12.8021
upperback 8.00253 2.2597 7.56403
thorax -3.17606 1.39306 0.429291
lowerneck -24.8821 -7.17506 -5.67082
upperneck 22.5833 -9.71917 6.83629
head 12.2088 -3.86754 1.77855
rclavicle 6.36111e-015 -3.18055e-014
rhumerus 22.4786 10.446 -66.4538
rradius 32.3374
rwrist 2.28595
rhand -15.658 36.6248
rfingers 7.12502
rthumb 10.5301 6.90857
lclavicle 6.36111e-015 -3.18055e-014
lhumerus -24.6591 -33.7131 96.953
lradius 65.8115
lwrist 43.7343
lhand -16.2995 59.2658
lfingers 7.12502
lthumb -170.089 -90.9876
rfemur -38.8653 -3.89773 15.1389
rtibia 30.6157
rfoot -11.0298 -11.7912
rtoes -0.0987
lfemur -29.0455 -4.03557 -20.8067
ltibia 17.6701
lfoot -0.946879 3.55796
ltoes -33.5702
476
root -6.70433 17.8904 3.71307 38.2218 58.5928 20.1115
lowerback 21.8324 -1.00328 12.8347
upperback 8.01321 2.29831 7.55443
thorax -3.18145 1.41253 0.391692
lowerneck -24.9572 -7.14463 -5.65206
upperneck 22.6347 -9.68659 6.84546
head 12.2404 -3.8469 1.78364
rclavicle 4.13472e-014 5.08889e-014
rhumerus 22.4487 9.87841 -66.8408
rradius 32.3509
rwrist 2.58755
rhand -15.7049 36.903
rfingers 7.12502
rthumb 10.4848 7.18444
lclavicle 4.13472e-014 5.08889e-014
lhumerus -24.5495 -34.0142 97.0343
lradius 65.5424
lwrist 43.639
lhand -16.1029 59.4277
lfingers 7.12502
lthumb -169.899 -90.8347
rfemur -38.8617 -3.90387 15.1573
rtibia 30.6327
rfoot -11.0204 -11.7825
rtoes 0.0540063
lfemur -29.0548 -3.98272 -20.8026
ltibia 17.6738
lfoot -0.869209 3.46312
ltoes -33.2746
477
root -6.70961 17.8903 3.70373 38.2106 58.6639 20.1724
lowerback 21.9157 -0.987095 12.834
upperback 8.02438 2.33467 7.55287
thorax -3.20866 1.42987 0.381062
lowerneck -25.021 -7.14546 -5.71706
upperneck 22.6149 -9.70151 6.99254
head 12.2594 -3.83812 1.84515
rclavicle -3.18055e-015 -6.67916e-014
rhumerus 22.4215 9.37065 -67.092
rradius 32.38
rwrist 2.82956
rhand -15.658 37.3149
rfingers 7.12502
rthumb 10.5301 7.59864
lclavicle -3.18055e-015 -6.67916e-014
lhumerus -24.5332 -34.3867 97.1419
lradius 65.4148
lwrist 43.6177
lhand -16.2051 59.4628
lfingers 7.12502
lthumb -169.998 -90.7949
rfemur -38.8207 -3.97805 15.1469
rtibia 30.6648
rfoot -11.0281 -11.7942
rtoes 0.137814
lfemur -29.0143 -4.06071 -20.8029
ltibia 17.6521
lfoot -0.845973 3.40735
ltoes -33.2526
478
root -6.71511 17.8903 3.69476 38.2619 58.7681 20.2593
lowerback 21.9359 -0.96747 12.8398
upperback 8.02814 2.36577 7.55538
thorax -3.2122 1.44548 0.373033
lowerneck -25.0159 -7.13498 -5.72593
upperneck 22.507 -9.70684 7.09823
head 12.2242 -3.83011 1.88507
rclavicle -4.45278e-014 -8.5875e-014
rhumerus 22.4038 8.84288 -67.2761
rradius 32.3908
rwrist 2.89468
rhand -15.4772 37.7965
rfingers 7.12502
rthumb 10.7045 8.08919
lclavicle -4.45278e-014 -8.5875e-014
lhumerus -24.5299 -34.7194 97.226
lradius 65.3007
lwrist 43.6767
lhand -16.2443 59.28
lfingers 7.12502
lthumb -170.036 -90.9758
rfemur -38.817 -4.04299 15.1255
rtibia 30.7047
rfoot -11.0321 -11.8667
rtoes 0.0454136
lfemur -29.0113 -4.13494 -20.8035
ltibia 17.6026
lfoot -0.80944 3.30018
ltoes -33.4492
479
root -6.72029 17.8898 3.68558 38.3614 58.8875 20.3723
lowerback 21.9108 -0.957431 12.849
upperback 8.01307 2.37916 7.56509
thorax -3.21516 1.45174 0.375546
lowerneck -24.9277 -7.12981 -5.73587
upperneck 22.4239 -9.69914 7.11791
head 12.1763 -3.82947 1.89717
rclavicle -6.36111e-015 3.81667e-014
rhumerus 22.35 8.46586 -67.3722
rradius 32.4598
rwrist 2.85517
rhand -15.1958 38.1877
rfingers 7.12502
rthumb 10.9759 8.49467
lclavicle -6.36111e-015 3.81667e-014
lhumerus -24.4981 -34.8174 97.3076
lradius 65.1662
lwrist 43.579
lhand -16.0044 59.2277
lfingers 7.12502
lthumb -169.804 -91.0393
rfemur -38.8316 -4.08976 15.088
rtibia 30.7321
rfoot -11.0194 -11.9646
rtoes -0.328819
lfemur -29.0424 -4.07644 -20.8608
ltibia 17.5425
lfoot -0.733688 3.03891
ltoes -33.7878
480
root -6.72543 17.8893 3.67669 38.4273 58.9868 20.4748
lowerback 21.9424 -0.951415 12.8127
upperback 7.98619 2.39173 7.59163
thorax -3.26369 1.45443 0.420409
lowerneck -24.9375 -7.12759 -5.71488
upperneck 22.4624 -9.67328 7.00276
head 12.1823 -3.83057 1.85528
rclavicle -2.8625e-014 -6.04305e-014
rhumerus 22.3055 8.31576 -67.3524
rradius 32.582
rwrist 2.89922
rhand -14.8991 38.5822
rfingers 7.12502
rthumb 11.2621 8.90456
lclavicle -2.8625e-014 -6.04305e-014
lhumerus -24.5346 -34.7767 97.4265
lradius 65.1221
lwrist 43.4346
lhand -15.861 59.3416
lfingers 7.12502
lthumb -169.666 -90.9323
rfemur -38.8073 -4.05954 15.02
rtibia 30.7393
rfoot -10.9913 -12.0715
rtoes -0.465366
lfemur -29.0493 -4.05376 -20.9058
ltibia 17.4978
lfoot -0.724453 2.8304
ltoes -34.2331
481
root -6.72946 17.8902 3.66795 38.3979 59.09 20.4762
lowerback 21.9756 -0.964363 12.7999
upperback 7.9724 2.38472 7.6217
thorax -3.29882 1.44926 0.461323
lowerneck -24.9958 -7.09376 -5.69276
upperneck 22.5305 -9.61231 6.91798
head 12.2086 -3.81004 1.8303
rclavicle -1.90833e-014 3.18055e-015
rhumerus 22.3196 8.31908 -67.267
rradius 32.7078
rwrist 3.05441
rhand -14.7062 37.9897
rfingers 7.12502
rthumb 11.4481 8.32228
lclavicle -1.90833e-014 3.18055e-015
lhumerus -24.6134 -34.7464 97.5113
lradius 65.14
lwrist 43.4538
lhand -15.9354 59.2603
lfingers 7.12502
lthumb -169.738 -91.01
rfemur -38.7642 -3.97632 14.99
rtibia 30.7365
rfoot -10.9486 -12.2058
rtoes -0.391193
lfemur -29.0403 -4.17554 -20.8347
ltibia 17.4575
lfoot -0.583366 2.77821
ltoes -33.384
482
root -6.73128 17.8926 3.65881 38.3701 59.1919 20.4679
lowerback 21.9557 -0.958133 12.8626
upperback 7.96299 2.40326 7.61864
thorax -3.29394 1.45914 0.41972
lowerneck -24.9964 -7.08257 -5.70315
upperneck 22.5667 -9.59702 6.92594
head 12.2229 -3.80194 1.83805
rclavicle -4.77083e-014 -2.54444e-014
rhumerus 22.2912 8.23261 -67.1667
rradius 32.8603
rwrist 3.23313
rhand -14.4021 37.4312
rfingers 7.12502
rthumb 11.7414 7.7803
lclavicle -4.77083e-014 -2.54444e-014
lhumerus -24.7097 -34.8262 97.5765
lradius 65.1817
lwrist 43.4961
lhand -16.027 58.9624
lfingers 7.12502
lthumb -169.826 -91.3036
rfemur -38.7294 -3.96483 14.9894
rtibia 30.7331
rfoot -10.9508 -12.2683
rtoes -0.0619157
lfemur -29.0281 -4.26786 -20.7792
ltibia 17.4089
lfoot -0.428083 2.70686
ltoes -32.3387
483
root -6.73382 17.8933 3.64959 38.413 59.2669 20.55
lowerback 21.94 -0.915063 12.929
upperback 7.96061 2.46531 7.5799
thorax -3.27774 1.4907 0.326754
lowerneck -25.0563 -7.11393 -5.66841
upperneck 22.6074 -9.65117 6.91522
head 12.2516 -3.82123 1.81699
rclavicle 2.8625e-014 8.5875e-014
rhumerus 22.2615 7.93161 -67.1038
rradius 33.0148
rwrist 3.38042
rhand -13.9396 36.8937
rfingers 7.12502
rthumb 12.1873 7.26873
lclavicle 2.8625e-014 8.5875e-014
lhumerus -24.768 -34.96 97.6016
lradius 65.2752
lwrist 43.468
lhand -16.0659 58.818
lfingers 7.12502
lthumb -169.863 -91.4462
rfemur -38.6939 -3.97491 14.9381
rtibia 30.7291
rfoot -10.9409 -12.3318
rtoes 0.238689
lfemur -29.0003 -4.36096 -20.798
ltibia 17.3619
lfoot -0.345107 2.69192
ltoes -32.1034
484
root -6.73988 17.8931 3.63955 38.4846 59.375 20.6426
lowerback 21.921 -0.906312 12.9352
upperback 7.9629 2.47528 7.58262
thorax -3.26458 1.4968 0.324255
lowerneck -25.1247 -7.06896 -5.59872
upperneck 22.5781 -9.59137 6.84866
head 12.2404 -3.79723 1.79036
rclavicle 1.90833e-014 1.90833e-014
rhumerus 22.3347 7.75364 -67.0065
rradius 33.1464
rwrist 3.41583
rhand -13.5818 36.2536
rfingers 7.12502
rthumb 12.5323 6.64949
lclavicle 1.90833e-014 1.90833e-014
lhumerus -24.7252 -34.8418 97.5677
lradius 65.364
lwrist 43.3957
lhand -15.9546 59.1464
lfingers 7.12502
lthumb -169.756 -91.1231
rfemur -38.6904 -3.96816 14.8907
rtibia 30.7294
rfoot -10.8815 -12.4629
rtoes 0.246361
lfemur -29.0053 -4.64864 -20.7304
ltibia 17.3117
lfoot -0.346051 2.88361
ltoes -32.117
485
root -6.74653 17.8929 3.62916 38.497 59.4904 20.6756
lowerback 21.8961 -0.897573 12.9183
upperback 7.97279 2.48194 7.61766
thorax -3.24334 1.50179 0.370563
lowerneck -25.1881 -6.98004 -5.56901
upperneck 22.5654 -9.46654 6.81882
head 12.2349 -3.74285 1.79655
rclavicle 3.18055e-014 2.8625e-014
rhumerus 22.392 7.56346 -66.8959
rradius 33.2141
rwrist 3.68844
rhand -13.6309 35.5277
rfingers 7.12502
rthumb 12.485 5.92069
lclavicle 3.18055e-014 2.8625e-014
lhumerus -24.6705 -34.6907 97.557
lradius 65.4299
lwrist 43.4493
lhand -15.8691 59.5024
lfingers 7.12502
lthumb -169.674 -90.7711
rfemur -38.6796 -3.96872 14.8737
rtibia 30.7286
rfoot -10.8682 -12.5262
rtoes 0.645543
lfemur -29.0097 -4.72926 -20.6998
ltibia 17.2638
lfoot -0.386404 2.92805
ltoes -32.118
486
root -6.75106 17.892 3.61968 38.44 59.5459 20.6766
lowerback 21.9506 -0.806068 12.7818
upperback 7.96802 2.59169 7.72575
thorax -3.28189 1.55116 0.535684
lowerneck -25.1716 -7.00808 -5.71534
upperneck 22.5875 -9.46383 6.86131
head 12.2508 -3.74851 1.83707
rclavicle 0 9.54166e-015
rhumerus 22.3507 7.29318 -66.6524
rradius 33.2437
rwrist 4.18346
rhand -13.8345 34.8856
rfingers 7.12502
rthumb 12.2887 5.26664
lclavicle 0 9.54166e-015
lhumerus -24.7001 -34.651 97.7605
lradius 65.4823
lwrist 43.5358
lhand -15.9494 59.3256
lfingers 7.12502
lthumb -169.751 -90.9441
rfemur -38.6226 -3.96344 14.8496
rtibia 30.7144
rfoot -10.8924 -12.5321
rtoes 1.15618
lfemur -28.9569 -4.49758 -20.7975
ltibia 17.2313
lfoot -0.389319 2.7366
ltoes -32.1754
